<svg width="128" height="36" viewBox="0 0 128 36" fill="none" xmlns="http://www.w3.org/2000/svg">
<path d="M17.9737 0.000266572C18.0452 0.000417905 18.1167 0.000569239 18.1903 0.000725158C19.2163 0.004213 20.2228 0.0218308 21.2305 0.232868C21.2989 0.246819 21.3674 0.26077 21.4379 0.275144C24.8356 0.985808 27.9247 2.52477 30.4301 4.93757C30.4995 5.00415 30.4995 5.00415 30.5704 5.07208C31.2367 5.71419 31.8505 6.36705 32.3964 7.11437C32.4566 7.1952 32.5169 7.27602 32.5772 7.35685C33.0012 7.93203 33.3775 8.52986 33.7307 9.15073C33.7563 9.1951 33.7819 9.23946 33.8082 9.28517C35.3255 11.9358 36.0114 14.9389 35.9999 17.972C35.9997 18.0435 35.9996 18.115 35.9994 18.1886C35.9959 19.2145 35.9783 20.2209 35.7672 21.2285C35.7463 21.3311 35.7463 21.3311 35.7249 21.4359C35.0142 24.8332 33.4751 27.9221 31.0621 30.4272C31.0177 30.4735 30.9733 30.5198 30.9276 30.5675C30.2854 31.2338 29.6325 31.8475 28.8851 32.3934C28.8043 32.4536 28.7234 32.5139 28.6426 32.5741C28.0675 32.9981 27.4704 33.376 26.8485 33.7275C26.7989 33.7558 26.7492 33.784 26.698 33.8131C25.0733 34.7277 23.3057 35.3421 21.4806 35.7156C21.4301 35.726 21.3797 35.7363 21.3276 35.747C20.297 35.9428 19.277 35.999 18.2299 35.9967C18.0235 35.9965 17.8171 35.9981 17.6107 35.9999C16.6715 36.003 15.7659 35.9184 14.8399 35.7639C14.7201 35.7441 14.7201 35.7441 14.5979 35.7239C11.5594 35.1781 8.67665 33.7746 6.34255 31.7614C6.29023 31.7168 6.2379 31.6723 6.18399 31.6264C5.23559 30.7971 4.34573 29.9017 3.60374 28.8824C3.54359 28.8016 3.48342 28.7209 3.42323 28.6402C2.99907 28.0651 2.62102 27.4679 2.26944 26.846C2.2412 26.7964 2.21296 26.7467 2.18386 26.6955C1.26913 25.071 0.654736 23.3035 0.28117 21.4786C0.270822 21.4281 0.260474 21.3777 0.249812 21.3257C0.0409702 20.227 -0.00398233 19.1404 0.000266597 18.0247C0.000417944 17.9532 0.000569292 17.8818 0.000725226 17.8081C0.0042134 16.7823 0.0218329 15.7759 0.23289 14.7683C0.246842 14.6998 0.260795 14.6314 0.27517 14.5608C0.9859 11.1635 2.52501 8.07467 4.93803 5.56954C4.98242 5.52324 5.02681 5.47694 5.07255 5.42924C5.71473 4.76298 6.36764 4.14927 7.11504 3.6034C7.19587 3.54315 7.2767 3.48289 7.35753 3.42264C7.93266 2.99869 8.52976 2.62071 9.15159 2.26923C9.20125 2.24099 9.25092 2.21275 9.30209 2.18365C10.9268 1.26901 12.6945 0.654675 14.5195 0.281144C14.57 0.270797 14.6205 0.26045 14.6725 0.249789C15.7712 0.0409664 16.8579 -0.00398196 17.9737 0.000266572Z" fill="url(#paint0_linear_2_17)"/>
<path d="M10.5605 26.7168L12.8301 23.0527C13.4772 23.5632 14.0924 23.9824 14.6758 24.3105C15.2591 24.6296 15.8333 24.8665 16.3984 25.0215C16.9635 25.1764 17.5378 25.2539 18.1211 25.2539C18.7591 25.2539 19.306 25.1719 19.7617 25.0078C20.2266 24.8346 20.582 24.5931 20.8281 24.2832C21.0833 23.9733 21.2109 23.6042 21.2109 23.1758C21.2109 22.6745 21.0423 22.2507 20.7051 21.9043C20.3678 21.5488 19.9212 21.2389 19.3652 20.9746C18.8184 20.7012 18.2214 20.4323 17.5742 20.168C16.918 19.8945 16.248 19.5983 15.5645 19.2793C14.89 18.9603 14.2702 18.5729 13.7051 18.1172C13.14 17.6523 12.6797 17.0918 12.3242 16.4355C11.9779 15.7793 11.8047 14.9818 11.8047 14.043C11.8047 12.8034 12.1146 11.7415 12.7344 10.8574C13.3633 9.96419 14.2201 9.2806 15.3047 8.80664C16.3984 8.32357 17.6335 8.08203 19.0098 8.08203C20.0124 8.08203 21.056 8.21419 22.1406 8.47852C23.2344 8.74284 24.3327 9.15299 25.4355 9.70898L23.5625 13.5781C22.9062 13.1771 22.1953 12.8626 21.4297 12.6348C20.6732 12.3978 19.9668 12.2793 19.3105 12.2793C18.791 12.2793 18.3353 12.3568 17.9434 12.5117C17.5605 12.6576 17.2598 12.8672 17.041 13.1406C16.8314 13.4141 16.7266 13.7331 16.7266 14.0977C16.7266 14.5625 16.8906 14.9681 17.2188 15.3145C17.556 15.6517 17.9935 15.957 18.5312 16.2305C19.069 16.5039 19.6523 16.7819 20.2812 17.0645C20.9466 17.347 21.6211 17.6615 22.3047 18.0078C22.9974 18.3542 23.6309 18.7643 24.2051 19.2383C24.7884 19.7031 25.2533 20.2637 25.5996 20.9199C25.9551 21.5762 26.1328 22.3646 26.1328 23.2852C26.1328 24.4974 25.8047 25.5684 25.1484 26.498C24.5013 27.4186 23.5898 28.1341 22.4141 28.6445C21.2474 29.1549 19.8893 29.4102 18.3398 29.4102C16.9089 29.4102 15.5326 29.1823 14.2109 28.7266C12.8984 28.2617 11.6816 27.5918 10.5605 26.7168ZM45.6699 29H40.5566L38.6699 21.2344L36.7832 29H31.6699L27.2402 15.3281H31.9844L34.1582 24.3926L36.7285 15.3281H40.6113L43.1816 24.4336L45.3555 15.3281H50.0996L45.6699 29ZM54.1191 12.4023C53.554 12.4023 53.0755 12.2064 52.6836 11.8145C52.3008 11.4134 52.1094 10.9303 52.1094 10.3652C52.1094 9.80924 52.3008 9.33529 52.6836 8.94336C53.0755 8.54232 53.554 8.3418 54.1191 8.3418C54.6934 8.3418 55.1764 8.54232 55.5684 8.94336C55.9603 9.33529 56.1562 9.80924 56.1562 10.3652C56.1562 10.9303 55.9603 11.4134 55.5684 11.8145C55.1764 12.2064 54.6934 12.4023 54.1191 12.4023ZM56.375 29H51.8906V15.3281H56.375V29ZM69.5137 28.6309C68.4199 29.0592 67.3581 29.2734 66.3281 29.2734C65.2435 29.2734 64.2819 29.0456 63.4434 28.5898C62.6139 28.125 61.9668 27.487 61.502 26.6758C61.0371 25.8555 60.8047 24.903 60.8047 23.8184V19.334H58.4121V15.3281H61.0508V11.9102H65.2891V15.3281H68.9805V19.334H65.2891V23.0117C65.2891 23.7318 65.4896 24.2878 65.8906 24.6797C66.2917 25.0716 66.7747 25.2676 67.3398 25.2676C67.8867 25.2676 68.4199 25.0944 68.9395 24.748L69.5137 28.6309ZM83.9102 26.7578C83.2448 27.5417 82.4199 28.1569 81.4355 28.6035C80.4512 29.0501 79.362 29.2734 78.168 29.2734C76.7461 29.2734 75.4746 28.9681 74.3535 28.3574C73.2415 27.7376 72.3665 26.8945 71.7285 25.8281C71.0905 24.7526 70.7715 23.5312 70.7715 22.1641C70.7715 20.7969 71.0905 19.5801 71.7285 18.5137C72.3665 17.4382 73.2415 16.5951 74.3535 15.9844C75.4746 15.3646 76.7461 15.0547 78.168 15.0547C79.3529 15.0547 80.4329 15.278 81.4082 15.7246C82.3926 16.1621 83.2174 16.7637 83.8828 17.5293L81.2578 20.3047C80.9388 19.9219 80.5286 19.6211 80.0273 19.4023C79.5352 19.1836 79.0202 19.0742 78.4824 19.0742C77.8809 19.0742 77.3431 19.2064 76.8691 19.4707C76.4043 19.7259 76.0352 20.0859 75.7617 20.5508C75.4974 21.0156 75.3652 21.5443 75.3652 22.1367C75.3652 22.7474 75.4974 23.2897 75.7617 23.7637C76.0352 24.2285 76.4043 24.5931 76.8691 24.8574C77.3431 25.1217 77.8809 25.2539 78.4824 25.2539C79.0202 25.2539 79.5397 25.1445 80.041 24.9258C80.5423 24.707 80.9479 24.4062 81.2578 24.0234L83.9102 26.7578ZM86.084 29V8.49219H90.5684V16.791C91.5436 15.6335 92.8926 15.0547 94.6152 15.0547C96.3105 15.0547 97.6322 15.5833 98.5801 16.6406C99.528 17.6979 100.002 19.1699 100.002 21.0566V29H95.5176V22.2734C95.5176 21.2526 95.3034 20.4642 94.875 19.9082C94.4557 19.3431 93.8587 19.0605 93.084 19.0605C92.291 19.0605 91.6712 19.3431 91.2246 19.9082C90.7871 20.4733 90.5684 21.2617 90.5684 22.2734V29H86.084ZM115.355 29H111.432L111.199 27.4414C110.698 28.0247 110.087 28.4759 109.367 28.7949C108.647 29.1139 107.854 29.2734 106.988 29.2734C106.04 29.2734 105.197 29.0911 104.459 28.7266C103.721 28.362 103.137 27.8607 102.709 27.2227C102.29 26.5755 102.08 25.8418 102.08 25.0215C102.08 24.1556 102.308 23.3945 102.764 22.7383C103.229 22.082 103.867 21.5671 104.678 21.1934C105.489 20.8197 106.414 20.6328 107.453 20.6328C108.046 20.6328 108.629 20.6966 109.203 20.8242C109.786 20.9518 110.342 21.1296 110.871 21.3574V21.0703C110.871 20.5872 110.725 20.168 110.434 19.8125C110.142 19.457 109.745 19.179 109.244 18.9785C108.743 18.7689 108.173 18.6641 107.535 18.6641C106.906 18.6641 106.296 18.7643 105.703 18.9648C105.111 19.1562 104.568 19.4342 104.076 19.7988L102.9 16.4492C103.867 15.9844 104.828 15.638 105.785 15.4102C106.751 15.1732 107.681 15.0547 108.574 15.0547C109.951 15.0547 111.145 15.3236 112.156 15.8613C113.177 16.3991 113.965 17.1602 114.521 18.1445C115.077 19.1198 115.355 20.2773 115.355 21.6172V29ZM108 25.9238C108.465 25.9238 108.911 25.8236 109.34 25.623C109.777 25.4134 110.133 25.14 110.406 24.8027C110.689 24.4655 110.835 24.1055 110.844 23.7227V23.668C110.479 23.431 110.074 23.2533 109.627 23.1348C109.18 23.0072 108.734 22.9434 108.287 22.9434C107.622 22.9434 107.089 23.0801 106.688 23.3535C106.286 23.6178 106.086 23.9733 106.086 24.4199C106.086 24.7025 106.168 24.9622 106.332 25.1992C106.496 25.4271 106.724 25.6048 107.016 25.7324C107.307 25.86 107.635 25.9238 108 25.9238ZM127.811 28.6309C126.717 29.0592 125.655 29.2734 124.625 29.2734C123.54 29.2734 122.579 29.0456 121.74 28.5898C120.911 28.125 120.264 27.487 119.799 26.6758C119.334 25.8555 119.102 24.903 119.102 23.8184V19.334H116.709V15.3281H119.348V11.9102H123.586V15.3281H127.277V19.334H123.586V23.0117C123.586 23.7318 123.786 24.2878 124.188 24.6797C124.589 25.0716 125.072 25.2676 125.637 25.2676C126.184 25.2676 126.717 25.0944 127.236 24.748L127.811 28.6309Z" fill="white"/>
<defs>
<linearGradient id="paint0_linear_2_17" x1="18" y1="0" x2="18" y2="36" gradientUnits="userSpaceOnUse">
<stop offset="0.359888" stop-color="#5D25FB"/>
<stop offset="1" stop-color="#5200FF" stop-opacity="0"/>
</linearGradient>
</defs>
</svg>
